<mxfile host="Electron" agent="Mozilla/5.0 (Macintosh; Intel Mac OS X 10_15_7) AppleWebKit/537.36 (KHTML, like Gecko) draw.io/26.0.4 Chrome/128.0.6613.186 Electron/32.2.5 Safari/537.36" version="26.0.4">
  <diagram name="Page-1" id="8of1DymJU1TiE-rpw-RE">
    <mxGraphModel dx="989" dy="688" grid="1" gridSize="10" guides="1" tooltips="1" connect="1" arrows="1" fold="1" page="1" pageScale="1" pageWidth="850" pageHeight="1100" math="0" shadow="0">
      <root>
        <mxCell id="0" />
        <mxCell id="1" parent="0" />
        <mxCell id="rVu3k0NPPyRmy_ulTHT8-11" style="edgeStyle=orthogonalEdgeStyle;rounded=0;orthogonalLoop=1;jettySize=auto;html=1;" edge="1" parent="1" source="rVu3k0NPPyRmy_ulTHT8-3" target="rVu3k0NPPyRmy_ulTHT8-4">
          <mxGeometry relative="1" as="geometry" />
        </mxCell>
        <mxCell id="rVu3k0NPPyRmy_ulTHT8-3" value="&lt;font style=&quot;font-size: 24px;&quot;&gt;Lexer&lt;/font&gt;" style="rounded=1;whiteSpace=wrap;html=1;" vertex="1" parent="1">
          <mxGeometry x="320" y="460" width="120" height="60" as="geometry" />
        </mxCell>
        <mxCell id="rVu3k0NPPyRmy_ulTHT8-12" style="edgeStyle=orthogonalEdgeStyle;rounded=0;orthogonalLoop=1;jettySize=auto;html=1;" edge="1" parent="1" source="rVu3k0NPPyRmy_ulTHT8-4" target="rVu3k0NPPyRmy_ulTHT8-5">
          <mxGeometry relative="1" as="geometry" />
        </mxCell>
        <mxCell id="rVu3k0NPPyRmy_ulTHT8-4" value="&lt;font style=&quot;font-size: 24px;&quot;&gt;Parser&lt;/font&gt;" style="rounded=1;whiteSpace=wrap;html=1;" vertex="1" parent="1">
          <mxGeometry x="320" y="560" width="120" height="60" as="geometry" />
        </mxCell>
        <mxCell id="rVu3k0NPPyRmy_ulTHT8-13" style="edgeStyle=orthogonalEdgeStyle;rounded=0;orthogonalLoop=1;jettySize=auto;html=1;" edge="1" parent="1" source="rVu3k0NPPyRmy_ulTHT8-5" target="rVu3k0NPPyRmy_ulTHT8-6">
          <mxGeometry relative="1" as="geometry" />
        </mxCell>
        <mxCell id="rVu3k0NPPyRmy_ulTHT8-5" value="&lt;font style=&quot;font-size: 24px;&quot;&gt;Semantic Analysis&lt;/font&gt;" style="rounded=1;whiteSpace=wrap;html=1;" vertex="1" parent="1">
          <mxGeometry x="320" y="660" width="120" height="60" as="geometry" />
        </mxCell>
        <mxCell id="rVu3k0NPPyRmy_ulTHT8-14" style="edgeStyle=orthogonalEdgeStyle;rounded=0;orthogonalLoop=1;jettySize=auto;html=1;" edge="1" parent="1" source="rVu3k0NPPyRmy_ulTHT8-6" target="rVu3k0NPPyRmy_ulTHT8-7">
          <mxGeometry relative="1" as="geometry" />
        </mxCell>
        <mxCell id="rVu3k0NPPyRmy_ulTHT8-6" value="&lt;font style=&quot;font-size: 14px;&quot;&gt;Intermediate Code Generation&lt;/font&gt;" style="rounded=1;whiteSpace=wrap;html=1;" vertex="1" parent="1">
          <mxGeometry x="320" y="760" width="120" height="60" as="geometry" />
        </mxCell>
        <mxCell id="rVu3k0NPPyRmy_ulTHT8-15" style="edgeStyle=orthogonalEdgeStyle;rounded=0;orthogonalLoop=1;jettySize=auto;html=1;" edge="1" parent="1" source="rVu3k0NPPyRmy_ulTHT8-7" target="rVu3k0NPPyRmy_ulTHT8-8">
          <mxGeometry relative="1" as="geometry" />
        </mxCell>
        <mxCell id="rVu3k0NPPyRmy_ulTHT8-7" value="&lt;font style=&quot;font-size: 18px;&quot;&gt;Optimizations&lt;/font&gt;" style="rounded=1;whiteSpace=wrap;html=1;" vertex="1" parent="1">
          <mxGeometry x="320" y="860" width="120" height="60" as="geometry" />
        </mxCell>
        <mxCell id="rVu3k0NPPyRmy_ulTHT8-8" value="&lt;font style=&quot;font-size: 24px;&quot;&gt;Code Generation&lt;/font&gt;" style="rounded=1;whiteSpace=wrap;html=1;" vertex="1" parent="1">
          <mxGeometry x="320" y="960" width="120" height="60" as="geometry" />
        </mxCell>
        <mxCell id="rVu3k0NPPyRmy_ulTHT8-19" style="edgeStyle=orthogonalEdgeStyle;rounded=0;orthogonalLoop=1;jettySize=auto;html=1;entryX=0;entryY=0.5;entryDx=0;entryDy=0;" edge="1" parent="1" source="rVu3k0NPPyRmy_ulTHT8-9" target="rVu3k0NPPyRmy_ulTHT8-3">
          <mxGeometry relative="1" as="geometry" />
        </mxCell>
        <mxCell id="rVu3k0NPPyRmy_ulTHT8-20" style="edgeStyle=orthogonalEdgeStyle;rounded=0;orthogonalLoop=1;jettySize=auto;html=1;" edge="1" parent="1" source="rVu3k0NPPyRmy_ulTHT8-9" target="rVu3k0NPPyRmy_ulTHT8-4">
          <mxGeometry relative="1" as="geometry" />
        </mxCell>
        <mxCell id="rVu3k0NPPyRmy_ulTHT8-21" style="edgeStyle=orthogonalEdgeStyle;rounded=0;orthogonalLoop=1;jettySize=auto;html=1;entryX=0;entryY=0.5;entryDx=0;entryDy=0;" edge="1" parent="1" source="rVu3k0NPPyRmy_ulTHT8-9" target="rVu3k0NPPyRmy_ulTHT8-5">
          <mxGeometry relative="1" as="geometry" />
        </mxCell>
        <mxCell id="rVu3k0NPPyRmy_ulTHT8-9" value="&lt;font style=&quot;font-size: 24px;&quot;&gt;Error Handler&lt;/font&gt;" style="rounded=1;whiteSpace=wrap;html=1;" vertex="1" parent="1">
          <mxGeometry x="120" y="560" width="120" height="60" as="geometry" />
        </mxCell>
        <mxCell id="rVu3k0NPPyRmy_ulTHT8-16" style="edgeStyle=orthogonalEdgeStyle;rounded=0;orthogonalLoop=1;jettySize=auto;html=1;entryX=1;entryY=0.5;entryDx=0;entryDy=0;" edge="1" parent="1" source="rVu3k0NPPyRmy_ulTHT8-10" target="rVu3k0NPPyRmy_ulTHT8-3">
          <mxGeometry relative="1" as="geometry" />
        </mxCell>
        <mxCell id="rVu3k0NPPyRmy_ulTHT8-17" style="edgeStyle=orthogonalEdgeStyle;rounded=0;orthogonalLoop=1;jettySize=auto;html=1;" edge="1" parent="1" source="rVu3k0NPPyRmy_ulTHT8-10" target="rVu3k0NPPyRmy_ulTHT8-4">
          <mxGeometry relative="1" as="geometry" />
        </mxCell>
        <mxCell id="rVu3k0NPPyRmy_ulTHT8-18" style="edgeStyle=orthogonalEdgeStyle;rounded=0;orthogonalLoop=1;jettySize=auto;html=1;entryX=1;entryY=0.5;entryDx=0;entryDy=0;" edge="1" parent="1" source="rVu3k0NPPyRmy_ulTHT8-10" target="rVu3k0NPPyRmy_ulTHT8-5">
          <mxGeometry relative="1" as="geometry" />
        </mxCell>
        <mxCell id="rVu3k0NPPyRmy_ulTHT8-10" value="&lt;font style=&quot;font-size: 24px;&quot;&gt;Symbol Table&lt;/font&gt;" style="rounded=1;whiteSpace=wrap;html=1;" vertex="1" parent="1">
          <mxGeometry x="520" y="560" width="120" height="60" as="geometry" />
        </mxCell>
      </root>
    </mxGraphModel>
  </diagram>
</mxfile>
